# xmcd CD database file
#
# Track frame offsets:
#	150
#	20032
#	42790
#	61968
#	80573
#	95035
#	118097
#	140492
#	155826
#	168943
#
# Disc length: 2651 seconds
#
# Revision: 1
# Processed by: cddbd v1.5.1PL0 Copyright (c) Steve Scherf et al.
# Submitted via: CDex 1.40Release
#
DISCID=880a590a
DTITLE=Waylon Tribute - Friday
DYEAR=2004
DGENRE=Texas Country
TTITLE0=If I Can Find A Clean Shirt - Doug Moreland
TTITLE1=Just To Satisfy You - Dub Miller
TTITLE2=Never Could Toe The Mark - Bleu Edmondson
TTITLE3=Good Hearted Woman - Micky and The Motorcars
TTITLE4=The Wurlitzer Prize - The Burtschi Brothers
TTITLE5=Whatever Happened To The Blues - Seth James
TTITLE6=You Asked Me Too - Wade Bowen and West 84
TTITLE7=Black Rose - Randy Rogers Band
TTITLE8=Ain't No God In Mexico - Billy Joe Shaver
TTITLE9=Only Daddy That'll Walk The Line - Cross Canadian Ragweed
EXTD=YEAR: 2004
EXTT0=
EXTT1=
EXTT2=
EXTT3=
EXTT4=
EXTT5=
EXTT6=
EXTT7=
EXTT8=
EXTT9=
PLAYORDER=
